<svg xmlns="http://www.w3.org/2000/svg" shape-rendering="geometricPrecision" text-rendering="geometricPrecision" image-rendering="optimizeQuality" fill-rule="evenodd" clip-rule="evenodd" viewBox="0 0 397 512.262"><g fill-rule="nonzero"><path d="M43.865 93.979a43.548 43.548 0 0123.898 7.127V89.281c0-12.063 4.935-23.029 12.876-30.961 7.932-7.941 18.898-12.866 30.961-12.866a43.513 43.513 0 0125.052 7.903v-9.529c0-12.064 4.926-23.03 12.866-30.962C157.459 4.925 168.415 0 180.478 0c12.064 0 23.03 4.925 30.961 12.866 7.941 7.942 12.876 18.898 12.876 30.962v9.671c7.015-4.774 15.485-7.582 24.579-7.582 12.063 0 23.02 4.925 30.961 12.866 7.941 7.941 12.866 18.908 12.866 30.961v208.3a72.82 72.82 0 01.832 11.004V321.3l1.087-1.021c7.535-7.081 14.918-14.464 17.688-17.244 18.69-18.717 38.816-22.687 54.774-17.62a41.811 41.811 0 0118.368 11.778c4.897 5.388 8.461 12.063 10.239 19.541 4.225 17.707-1.494 40.008-23.493 59.709l-.359.359.01.01-.076.066-96.379 97.315.018.029c-.226.227-.463.444-.709.652-14.076 13.537-27.897 22.82-42.89 28.786-15.239 6.069-31.329 8.602-49.792 8.602h-62.356c-33.202 0-63.056-13.575-84.666-35.44C13.33 454.87 0 424.562 0 391.247v-82.199c0-2.874.161-5.71.473-8.509a10.004 10.004 0 01-.445-3.063v-159.67c0-12.063 4.926-23.02 12.867-30.961 7.941-7.942 18.907-12.866 30.97-12.866z"/><path fill="#FDD0BF" d="M252.362 337.64c7.675 1.654 15.79 4.087 24.294 7.345a3.41 3.41 0 011.772 1.196c2.318 2.98 5.89 3.173 8.979 1.32 2.85-1.618 5.703-3.933 8.22-6.033 3.182-2.654 6.742-5.876 10.284-9.206 6.134-5.763 12.12-11.688 18.071-17.639 6.379-6.374 12.782-10.478 18.849-12.7 10.864-3.981 22.372-2.395 30.291 6.172 9.032 9.273 8.887 23.928 4.012 35.141-2.704 6.225-7.15 12.657-13.666 18.936l-4.954 4.751-95.217 96.139c-24.394 23.484-47.433 32.722-81.258 32.722h-62.356c-57.687 0-103.204-47.228-103.204-104.528v-82.199c0-23.973 13.827-44.01 36.709-52.131 13.327-4.025 18.939-2.783 30.66-2.783h136.194c25.593 0 48.04 17.33 54.912 41.554 2.95 10.416 2.111 20.011 2.111 30.717-.047 2.32-2.246 3.998-4.502 3.265-7.665-2.515-15.051-4.399-22.122-5.673-38.152-6.872-77.318 2.909-93.508 41.478-4.231 10.072-6.265 20.958-6.744 31.841l12.999.155c.488-10.17 2.241-17.467 5.772-26.953 14.428-34.34 50.429-39.978 83.402-32.887zM22.618 260.367a3.441 3.441 0 01-6.101-2.179V137.815c0-15.015 12.326-27.348 27.348-27.348 15.017 0 27.338 12.335 27.338 27.348v97.873a3.445 3.445 0 01-3.238 3.426c-8.59.517-16.702 2.605-24.081 5.977a68.096 68.096 0 00-17.123 11.229 71.915 71.915 0 00-4.143 4.047zm112.89-21.371H87.691a3.441 3.441 0 01-3.44-3.44V89.29c0-15 12.348-27.348 27.349-27.348 15.092 0 27.348 12.41 27.348 27.348v146.266a3.441 3.441 0 01-3.44 3.44zm68.879 0H156.57a3.441 3.441 0 01-3.44-3.44V43.837c0-15.092 12.41-27.349 27.348-27.349 15.092 0 27.349 12.411 27.349 27.349v191.719a3.441 3.441 0 01-3.44 3.44zm44.534 6.246a69.284 69.284 0 00-23.964-6.076 3.442 3.442 0 01-3.41-3.44V89.753c0-15.098 12.406-27.338 27.347-27.338 15.008 0 27.348 12.323 27.348 27.338V257.99a3.472 3.472 0 01-1.048 2.459 3.432 3.432 0 01-4.851-.068l-.832-.85a70.652 70.652 0 00-20.59-14.289z"/><path fill="#FEDECF" d="M252.362 337.64c7.675 1.654 15.79 4.087 24.294 7.345a3.41 3.41 0 011.772 1.196c2.318 2.98 5.89 3.173 8.979 1.32 2.85-1.618 5.703-3.933 8.22-6.033 3.182-2.654 6.742-5.876 10.284-9.206 6.134-5.763 12.12-11.688 18.071-17.639 6.379-6.374 12.782-10.478 18.849-12.7 10.864-3.981 22.372-2.395 30.291 6.172 9.032 9.273 8.887 23.928 4.012 35.141-2.704 6.225-7.15 12.657-13.666 18.936l-4.954 4.751-95.217 96.139c-24.394 23.484-47.433 32.722-81.258 32.722h-52.976c-57.686 0-103.203-47.228-103.203-104.528v-82.199c0-23.973 13.827-34.63 36.708-42.751 13.327-4.024 18.94-2.783 30.66-2.783h126.814c25.593 0 48.044 17.33 54.912 41.554 2.952 10.415 2.111 10.631 2.111 21.337-.047 2.32-2.246 3.998-4.502 3.265-7.665-2.515-15.051-4.399-22.122-5.673-38.152-6.872-77.318 2.909-93.508 41.478-4.231 10.072-6.265 20.958-6.744 31.841l12.999.155c.488-10.17 2.241-17.467 5.772-26.953 14.428-34.34 50.429-39.978 83.402-32.887zm5.94-92.398a69.29 69.29 0 00-23.965-6.076 3.443 3.443 0 01-3.41-3.44V99.134c0-15.099 12.407-27.339 27.347-27.339 15.008 0 17.968 12.323 17.968 27.339V257.99a3.472 3.472 0 01-1.048 2.459 3.432 3.432 0 01-4.851-.068l-.832-.85c-5.927-5.915-3.514-10.783-11.209-14.289zm-226.304 5.745a3.44 3.44 0 01-6.101-2.18V147.195c0-15.014 2.946-27.348 17.968-27.348 15.017 0 27.338 12.335 27.338 27.348v88.493c-.033 8.356-15.546-9.59-39.205 15.299zm103.51-11.991H97.072a3.441 3.441 0 01-3.44-3.44V98.671c0-15.001 2.967-27.349 17.968-27.349 15.092 0 27.348 12.411 27.348 27.349v136.885a3.441 3.441 0 01-3.44 3.44zm68.879 0h-38.436a3.441 3.441 0 01-3.44-3.44V53.217c0-15.092 3.029-27.348 17.967-27.348 15.092 0 27.349 12.41 27.349 27.348v182.339a3.441 3.441 0 01-3.44 3.44z"/></g></svg>